<svg width="45" height="45" viewBox="0 0 45 45" fill="none" xmlns="http://www.w3.org/2000/svg">
<rect width="45" height="45" rx="10" transform="matrix(-1 0 0 1 45 0)" fill="#D9D4D5" fill-opacity="0.85"/>
<path d="M31.5022 15.7006C30.0052 15.5518 28.5082 15.4403 27.002 15.3566V15.3473L26.7974 14.1385C26.6579 13.2831 26.4534 12 24.2776 12H21.8416C19.6751 12 19.4705 13.2273 19.3218 14.1292L19.1265 15.3194C18.2618 15.3752 17.3971 15.431 16.5324 15.5146L14.6356 15.7006C14.2451 15.7378 13.9661 16.0818 14.0033 16.463C14.0405 16.8443 14.3752 17.1232 14.7658 17.086L16.6626 16.9C21.5347 16.4166 26.4441 16.6025 31.372 17.0953H31.4464C31.7997 17.0953 32.1066 16.8257 32.1438 16.463C32.1716 16.0818 31.8927 15.7378 31.5022 15.7006Z" fill="#292D32"/>
<path d="M29.7914 18.4063C29.5682 18.1739 29.2614 18.0437 28.9453 18.0437H17.1926C16.8765 18.0437 16.5604 18.1739 16.3465 18.4063C16.1327 18.6388 16.0118 18.9549 16.0304 19.2803L16.6069 28.8201C16.7091 30.2334 16.8393 32 20.0843 32H26.0536C29.2986 32 29.4288 30.2427 29.531 28.8201L30.1075 19.2896C30.1261 18.9549 30.0052 18.6388 29.7914 18.4063ZM24.6124 27.3417H21.5162C21.135 27.3417 20.8188 27.0256 20.8188 26.6444C20.8188 26.2631 21.135 25.947 21.5162 25.947H24.6124C24.9936 25.947 25.3097 26.2631 25.3097 26.6444C25.3097 27.0256 24.9936 27.3417 24.6124 27.3417ZM25.3934 23.6225H20.7445C20.3632 23.6225 20.0471 23.3064 20.0471 22.9252C20.0471 22.5439 20.3632 22.2278 20.7445 22.2278H25.3934C25.7746 22.2278 26.0908 22.5439 26.0908 22.9252C26.0908 23.3064 25.7746 23.6225 25.3934 23.6225Z" fill="#292D32"/>
</svg>
