<svg width="45" height="45" viewBox="0 0 45 45" fill="none" xmlns="http://www.w3.org/2000/svg">
<rect width="45" height="45" rx="10" transform="matrix(-1 0 0 1 45 0)" fill="#D9D4D5" fill-opacity="0.85"/>
<path d="M26.5001 23.1501H24.3301C22.5501 23.1501 21.1001 21.7101 21.1001 19.9201V17.7501C21.1001 17.3401 20.7701 17.0001 20.3501 17.0001H17.18C14.87 17.0001 13 18.5001 13 21.1801V27.8202C13 30.5002 14.87 32.0002 17.18 32.0002H23.0701C25.3801 32.0002 27.2501 30.5002 27.2501 27.8202V23.9001C27.2501 23.4801 26.9101 23.1501 26.5001 23.1501Z" fill="#292D32"/>
<path d="M28.82 12H26.8499H25.7599H22.9299C20.6698 12 18.8398 13.44 18.7598 16.01C18.8198 16.01 18.8698 16 18.9298 16H21.7599H22.8499H24.8199C27.1299 16 29 17.5001 29 20.1801V22.1501V24.8601V26.8301C29 26.8901 28.99 26.9401 28.99 26.9901C31.22 26.9201 33 25.4401 33 22.8301V20.8601V18.1501V16.18C33 13.5 31.13 12 28.82 12Z" fill="#292D32"/>
<path d="M22.9807 17.1518C22.6707 16.8417 22.1407 17.0518 22.1407 17.4818V20.1018C22.1407 21.2018 23.0707 22.1018 24.2107 22.1018C24.9207 22.1118 25.9107 22.1118 26.7607 22.1118C27.1907 22.1118 27.4107 21.6118 27.1107 21.3118C26.0207 20.2218 24.0807 18.2718 22.9807 17.1518Z" fill="#292D32"/>
</svg>
