<svg width="161" height="51" viewBox="0 0 161 51" fill="none" xmlns="http://www.w3.org/2000/svg">
<rect width="161" height="51" rx="25.5" transform="matrix(-1 0 0 1 161 0)" fill="#D9D4D5" fill-opacity="0.85"/>
<path d="M48.101 32V20.825H51.746C52.926 20.825 53.951 21.065 54.821 21.545C55.701 22.015 56.381 22.67 56.861 23.51C57.341 24.34 57.581 25.305 57.581 26.405C57.581 27.495 57.341 28.465 56.861 29.315C56.381 30.155 55.701 30.815 54.821 31.295C53.951 31.765 52.926 32 51.746 32H48.101ZM50.141 30.2H51.791C52.551 30.2 53.206 30.045 53.756 29.735C54.316 29.415 54.751 28.975 55.061 28.415C55.371 27.845 55.526 27.175 55.526 26.405C55.526 25.625 55.371 24.955 55.061 24.395C54.751 23.835 54.316 23.4 53.756 23.09C53.206 22.78 52.551 22.625 51.791 22.625H50.141V30.2ZM62.9095 32.18C62.0695 32.18 61.3345 31.99 60.7045 31.61C60.0745 31.23 59.5845 30.715 59.2345 30.065C58.8845 29.415 58.7095 28.695 58.7095 27.905C58.7095 27.085 58.8845 26.36 59.2345 25.73C59.5945 25.09 60.0795 24.585 60.6895 24.215C61.3095 23.845 61.9995 23.66 62.7595 23.66C63.3995 23.66 63.9595 23.765 64.4395 23.975C64.9295 24.185 65.3445 24.475 65.6845 24.845C66.0245 25.215 66.2845 25.64 66.4645 26.12C66.6445 26.59 66.7345 27.1 66.7345 27.65C66.7345 27.79 66.7245 27.935 66.7045 28.085C66.6945 28.235 66.6695 28.365 66.6295 28.475H60.3295V26.975H65.5195L64.5895 27.68C64.6795 27.22 64.6545 26.81 64.5145 26.45C64.3845 26.09 64.1645 25.805 63.8545 25.595C63.5545 25.385 63.1895 25.28 62.7595 25.28C62.3495 25.28 61.9845 25.385 61.6645 25.595C61.3445 25.795 61.0995 26.095 60.9295 26.495C60.7695 26.885 60.7095 27.36 60.7495 27.92C60.7095 28.42 60.7745 28.865 60.9445 29.255C61.1245 29.635 61.3845 29.93 61.7245 30.14C62.0745 30.35 62.4745 30.455 62.9245 30.455C63.3745 30.455 63.7545 30.36 64.0645 30.17C64.3845 29.98 64.6345 29.725 64.8145 29.405L66.4045 30.185C66.2445 30.575 65.9945 30.92 65.6545 31.22C65.3145 31.52 64.9095 31.755 64.4395 31.925C63.9795 32.095 63.4695 32.18 62.9095 32.18ZM72.1541 32.18C71.3441 32.18 70.6141 31.995 69.9641 31.625C69.3241 31.245 68.8191 30.735 68.4491 30.095C68.0791 29.445 67.8941 28.715 67.8941 27.905C67.8941 27.095 68.0791 26.37 68.4491 25.73C68.8191 25.09 69.3241 24.585 69.9641 24.215C70.6141 23.845 71.3441 23.66 72.1541 23.66C72.7341 23.66 73.2741 23.765 73.7741 23.975C74.2741 24.175 74.7041 24.455 75.0641 24.815C75.4341 25.165 75.6991 25.585 75.8591 26.075L74.1341 26.825C73.9841 26.415 73.7291 26.085 73.3691 25.835C73.0191 25.585 72.6141 25.46 72.1541 25.46C71.7241 25.46 71.3391 25.565 70.9991 25.775C70.6691 25.985 70.4091 26.275 70.2191 26.645C70.0291 27.015 69.9341 27.44 69.9341 27.92C69.9341 28.4 70.0291 28.825 70.2191 29.195C70.4091 29.565 70.6691 29.855 70.9991 30.065C71.3391 30.275 71.7241 30.38 72.1541 30.38C72.6241 30.38 73.0341 30.255 73.3841 30.005C73.7341 29.755 73.9841 29.42 74.1341 29L75.8591 29.78C75.6991 30.24 75.4391 30.655 75.0791 31.025C74.7191 31.385 74.2891 31.67 73.7891 31.88C73.2891 32.08 72.7441 32.18 72.1541 32.18ZM77.3501 32V23.84H79.3151V32H77.3501ZM77.3501 22.925V20.825H79.3151V22.925H77.3501ZM81.1294 35V23.84H82.9744V25.46L82.7944 25.055C83.0744 24.615 83.4544 24.275 83.9344 24.035C84.4144 23.785 84.9694 23.66 85.5994 23.66C86.3694 23.66 87.0644 23.85 87.6844 24.23C88.3044 24.61 88.7944 25.12 89.1544 25.76C89.5244 26.4 89.7094 27.12 89.7094 27.92C89.7094 28.71 89.5294 29.43 89.1694 30.08C88.8094 30.73 88.3194 31.245 87.6994 31.625C87.0794 31.995 86.3744 32.18 85.5844 32.18C84.9944 32.18 84.4494 32.065 83.9494 31.835C83.4594 31.595 83.0694 31.255 82.7794 30.815L83.0944 30.425V35H81.1294ZM85.3594 30.38C85.8094 30.38 86.2094 30.275 86.5594 30.065C86.9094 29.855 87.1794 29.565 87.3694 29.195C87.5694 28.825 87.6694 28.4 87.6694 27.92C87.6694 27.44 87.5694 27.02 87.3694 26.66C87.1794 26.29 86.9094 26 86.5594 25.79C86.2094 25.57 85.8094 25.46 85.3594 25.46C84.9294 25.46 84.5394 25.565 84.1894 25.775C83.8494 25.985 83.5794 26.28 83.3794 26.66C83.1894 27.03 83.0944 27.45 83.0944 27.92C83.0944 28.4 83.1894 28.825 83.3794 29.195C83.5794 29.565 83.8494 29.855 84.1894 30.065C84.5394 30.275 84.9294 30.38 85.3594 30.38ZM91.2075 32V20.645H93.1725V25.445L92.9025 25.16C93.0925 24.67 93.4025 24.3 93.8325 24.05C94.2725 23.79 94.7825 23.66 95.3625 23.66C95.9625 23.66 96.4925 23.79 96.9525 24.05C97.4225 24.31 97.7875 24.675 98.0475 25.145C98.3075 25.605 98.4375 26.14 98.4375 26.75V32H96.4725V27.215C96.4725 26.855 96.4025 26.545 96.2625 26.285C96.1225 26.025 95.9275 25.825 95.6775 25.685C95.4375 25.535 95.1525 25.46 94.8225 25.46C94.5025 25.46 94.2175 25.535 93.9675 25.685C93.7175 25.825 93.5225 26.025 93.3825 26.285C93.2425 26.545 93.1725 26.855 93.1725 27.215V32H91.2075ZM103.969 32.18C103.129 32.18 102.394 31.99 101.764 31.61C101.134 31.23 100.644 30.715 100.294 30.065C99.9441 29.415 99.7691 28.695 99.7691 27.905C99.7691 27.085 99.9441 26.36 100.294 25.73C100.654 25.09 101.139 24.585 101.749 24.215C102.369 23.845 103.059 23.66 103.819 23.66C104.459 23.66 105.019 23.765 105.499 23.975C105.989 24.185 106.404 24.475 106.744 24.845C107.084 25.215 107.344 25.64 107.524 26.12C107.704 26.59 107.794 27.1 107.794 27.65C107.794 27.79 107.784 27.935 107.764 28.085C107.754 28.235 107.729 28.365 107.689 28.475H101.389V26.975H106.579L105.649 27.68C105.739 27.22 105.714 26.81 105.574 26.45C105.444 26.09 105.224 25.805 104.914 25.595C104.614 25.385 104.249 25.28 103.819 25.28C103.409 25.28 103.044 25.385 102.724 25.595C102.404 25.795 102.159 26.095 101.989 26.495C101.829 26.885 101.769 27.36 101.809 27.92C101.769 28.42 101.834 28.865 102.004 29.255C102.184 29.635 102.444 29.93 102.784 30.14C103.134 30.35 103.534 30.455 103.984 30.455C104.434 30.455 104.814 30.36 105.124 30.17C105.444 29.98 105.694 29.725 105.874 29.405L107.464 30.185C107.304 30.575 107.054 30.92 106.714 31.22C106.374 31.52 105.969 31.755 105.499 31.925C105.039 32.095 104.529 32.18 103.969 32.18ZM109.284 32V23.84H111.129V25.655L110.979 25.385C111.169 24.775 111.464 24.35 111.864 24.11C112.274 23.87 112.764 23.75 113.334 23.75H113.814V25.49H113.109C112.549 25.49 112.099 25.665 111.759 26.015C111.419 26.355 111.249 26.835 111.249 27.455V32H109.284Z" fill="#1C1A1F" fill-opacity="0.85"/>
</svg>
