<svg width="20" height="20" viewBox="0 0 20 20" fill="none" xmlns="http://www.w3.org/2000/svg">
<path opacity="0.4" d="M10 20C15.5228 20 20 15.5228 20 10C20 4.47715 15.5228 0 10 0C4.47715 0 0 4.47715 0 10C0 15.5228 4.47715 20 10 20Z" fill="#DDDDDD" fill-opacity="0.3"/>
<path d="M11.0594 10.0001L13.3594 7.70011C13.6494 7.41011 13.6494 6.93011 13.3594 6.64011C13.0694 6.35011 12.5894 6.35011 12.2994 6.64011L9.99939 8.9401L7.69936 6.64011C7.40936 6.35011 6.92936 6.35011 6.63937 6.64011C6.34938 6.93011 6.34938 7.41011 6.63937 7.70011L8.93939 10.0001L6.63937 12.3001C6.34938 12.5901 6.34938 13.0701 6.63937 13.3601C6.78937 13.5101 6.97936 13.5801 7.16936 13.5801C7.35936 13.5801 7.54936 13.5101 7.69936 13.3601L9.99939 11.0601L12.2994 13.3601C12.4494 13.5101 12.6394 13.5801 12.8294 13.5801C13.0194 13.5801 13.2094 13.5101 13.3594 13.3601C13.6494 13.0701 13.6494 12.5901 13.3594 12.3001L11.0594 10.0001Z" fill="#DDDDDD" fill-opacity="0.85"/>
</svg>
