<svg width="161" height="51" viewBox="0 0 161 51" fill="none" xmlns="http://www.w3.org/2000/svg">
<rect width="161" height="51" rx="25.5" transform="matrix(-1 0 0 1 161 0)" fill="#D9D4D5" fill-opacity="0.85"/>
<path d="M62.7499 32.18C61.9499 32.18 61.2099 32.035 60.5299 31.745C59.8599 31.455 59.2699 31.05 58.7599 30.53C58.2599 30.01 57.8699 29.4 57.5899 28.7C57.3099 28 57.1699 27.235 57.1699 26.405C57.1699 25.575 57.3049 24.81 57.5749 24.11C57.8549 23.4 58.2449 22.79 58.7449 22.28C59.2549 21.76 59.8499 21.36 60.5299 21.08C61.2099 20.79 61.9499 20.645 62.7499 20.645C63.5499 20.645 64.2649 20.78 64.8949 21.05C65.5349 21.32 66.0749 21.68 66.5149 22.13C66.9549 22.57 67.2699 23.055 67.4599 23.585L65.6299 24.44C65.4199 23.88 65.0649 23.42 64.5649 23.06C64.0649 22.69 63.4599 22.505 62.7499 22.505C62.0499 22.505 61.4299 22.67 60.8899 23C60.3599 23.33 59.9449 23.785 59.6449 24.365C59.3549 24.945 59.2099 25.625 59.2099 26.405C59.2099 27.185 59.3549 27.87 59.6449 28.46C59.9449 29.04 60.3599 29.495 60.8899 29.825C61.4299 30.155 62.0499 30.32 62.7499 30.32C63.4599 30.32 64.0649 30.14 64.5649 29.78C65.0649 29.41 65.4199 28.945 65.6299 28.385L67.4599 29.24C67.2699 29.77 66.9549 30.26 66.5149 30.71C66.0749 31.15 65.5349 31.505 64.8949 31.775C64.2649 32.045 63.5499 32.18 62.7499 32.18ZM68.9511 32V23.84H70.9161V32H68.9511ZM68.9511 22.925V20.825H70.9161V22.925H68.9511ZM72.7304 35V23.84H74.5754V25.46L74.3954 25.055C74.6754 24.615 75.0554 24.275 75.5354 24.035C76.0154 23.785 76.5704 23.66 77.2004 23.66C77.9704 23.66 78.6654 23.85 79.2854 24.23C79.9054 24.61 80.3954 25.12 80.7554 25.76C81.1254 26.4 81.3104 27.12 81.3104 27.92C81.3104 28.71 81.1304 29.43 80.7704 30.08C80.4104 30.73 79.9204 31.245 79.3004 31.625C78.6804 31.995 77.9754 32.18 77.1854 32.18C76.5954 32.18 76.0504 32.065 75.5504 31.835C75.0604 31.595 74.6704 31.255 74.3804 30.815L74.6954 30.425V35H72.7304ZM76.9604 30.38C77.4104 30.38 77.8104 30.275 78.1604 30.065C78.5104 29.855 78.7804 29.565 78.9704 29.195C79.1704 28.825 79.2704 28.4 79.2704 27.92C79.2704 27.44 79.1704 27.02 78.9704 26.66C78.7804 26.29 78.5104 26 78.1604 25.79C77.8104 25.57 77.4104 25.46 76.9604 25.46C76.5304 25.46 76.1404 25.565 75.7904 25.775C75.4504 25.985 75.1804 26.28 74.9804 26.66C74.7904 27.03 74.6954 27.45 74.6954 27.92C74.6954 28.4 74.7904 28.825 74.9804 29.195C75.1804 29.565 75.4504 29.855 75.7904 30.065C76.1404 30.275 76.5304 30.38 76.9604 30.38ZM82.8086 32V20.645H84.7736V25.445L84.5036 25.16C84.6936 24.67 85.0036 24.3 85.4336 24.05C85.8736 23.79 86.3836 23.66 86.9636 23.66C87.5636 23.66 88.0936 23.79 88.5536 24.05C89.0236 24.31 89.3886 24.675 89.6486 25.145C89.9086 25.605 90.0386 26.14 90.0386 26.75V32H88.0736V27.215C88.0736 26.855 88.0036 26.545 87.8636 26.285C87.7236 26.025 87.5286 25.825 87.2786 25.685C87.0386 25.535 86.7536 25.46 86.4236 25.46C86.1036 25.46 85.8186 25.535 85.5686 25.685C85.3186 25.825 85.1236 26.025 84.9836 26.285C84.8436 26.545 84.7736 26.855 84.7736 27.215V32H82.8086ZM95.5702 32.18C94.7302 32.18 93.9952 31.99 93.3652 31.61C92.7352 31.23 92.2452 30.715 91.8952 30.065C91.5452 29.415 91.3702 28.695 91.3702 27.905C91.3702 27.085 91.5452 26.36 91.8952 25.73C92.2552 25.09 92.7402 24.585 93.3502 24.215C93.9702 23.845 94.6602 23.66 95.4202 23.66C96.0602 23.66 96.6202 23.765 97.1002 23.975C97.5902 24.185 98.0052 24.475 98.3452 24.845C98.6852 25.215 98.9452 25.64 99.1252 26.12C99.3052 26.59 99.3952 27.1 99.3952 27.65C99.3952 27.79 99.3852 27.935 99.3652 28.085C99.3552 28.235 99.3302 28.365 99.2902 28.475H92.9902V26.975H98.1802L97.2502 27.68C97.3402 27.22 97.3152 26.81 97.1752 26.45C97.0452 26.09 96.8252 25.805 96.5152 25.595C96.2152 25.385 95.8502 25.28 95.4202 25.28C95.0102 25.28 94.6452 25.385 94.3252 25.595C94.0052 25.795 93.7602 26.095 93.5902 26.495C93.4302 26.885 93.3702 27.36 93.4102 27.92C93.3702 28.42 93.4352 28.865 93.6052 29.255C93.7852 29.635 94.0452 29.93 94.3852 30.14C94.7352 30.35 95.1352 30.455 95.5852 30.455C96.0352 30.455 96.4152 30.36 96.7252 30.17C97.0452 29.98 97.2952 29.725 97.4752 29.405L99.0652 30.185C98.9052 30.575 98.6552 30.92 98.3152 31.22C97.9752 31.52 97.5702 31.755 97.1002 31.925C96.6402 32.095 96.1302 32.18 95.5702 32.18ZM100.885 32V23.84H102.73V25.655L102.58 25.385C102.77 24.775 103.065 24.35 103.465 24.11C103.875 23.87 104.365 23.75 104.935 23.75H105.415V25.49H104.71C104.15 25.49 103.7 25.665 103.36 26.015C103.02 26.355 102.85 26.835 102.85 27.455V32H100.885Z" fill="#1C1A1F" fill-opacity="0.85"/>
</svg>
